<svg width="339" height="287" viewBox="0 0 339 287" fill="none" xmlns="http://www.w3.org/2000/svg">
<path fill-rule="evenodd" clip-rule="evenodd" d="M0 235V287H175.2C226.933 287 267.067 274.867 295.6 250.6C324.133 226.333 338.4 190.733 338.4 143.8C338.4 96.8666 324.133 61.2666 295.6 37C267.067 12.7333 226.933 0.599976 175.2 0.599976L47.2 0.999971H0V52H66V52.6H170.8C204.4 52.6 229.867 59.9333 247.2 74.6C264.533 89 273.2 112.067 273.2 143.8C273.2 175.267 264.533 198.333 247.2 213C229.867 227.667 204.4 235 170.8 235L66 235L64 235L0 235Z" fill="black"/>
</svg>
