<svg width="334" height="286" viewBox="0 0 334 286" fill="none" xmlns="http://www.w3.org/2000/svg">
<path fill-rule="evenodd" clip-rule="evenodd" d="M0 13.4334V0H239.6C269.2 0 292.133 7.46667 308.4 22.4C324.933 37.3333 333.2 60 333.2 90.4C333.2 116.267 327.2 136.533 315.2 151.2C303.2 165.867 286.133 175.067 264 178.8L330 286H257.2L196 180.8H67V128.407L232 128.8C243.733 128.8 252.667 125.867 258.8 120C265.2 114.133 268.4 104.267 268.4 90.4C268.4 76.2667 265.2 66.4 258.8 60.8C252.667 54.9333 243.733 52 232 52H67H64H41.2716C37.0401 42.8559 29.8279 33.9431 20.3427 26.238C14.2109 21.257 7.31784 16.9338 0 13.4334Z" fill="black"/>
</svg>
