<svg width="111" height="114" viewBox="0 0 111 114" fill="none" xmlns="http://www.w3.org/2000/svg">
<path d="M87.4063 47.1876C100.437 47.1876 111 36.6243 111 23.5938C111 10.5633 100.437 0 87.4063 0C74.3758 0 63.8125 10.5633 63.8125 23.5938C63.8125 36.6243 74.3758 47.1876 87.4063 47.1876Z" fill="#E5F1FF"/>
<path d="M36.3652 83.0824C41.7505 77.6971 41.7505 68.9658 36.3652 63.5805C30.9799 58.1952 22.2486 58.1952 16.8633 63.5805C11.478 68.9658 11.478 77.6971 16.8633 83.0824C22.2486 88.4677 30.9799 88.4677 36.3652 83.0824Z" fill="#E5F1FF"/>
<path d="M26.431 7.86551C19.4684 7.86551 13.8242 13.5099 13.8242 20.4726C13.8242 27.4353 19.4686 33.0797 26.431 33.0797C33.3937 33.0797 39.0381 27.4353 39.0381 20.4726C39.0378 13.5099 33.3934 7.86551 26.431 7.86551ZM26.431 28.5327C21.9795 28.5327 18.3709 24.9241 18.3709 20.4726C18.3709 16.0211 21.9795 12.4124 26.431 12.4124C30.8826 12.4124 34.4912 16.0211 34.4912 20.4726C34.4912 24.9241 30.8823 28.5327 26.431 28.5327Z" fill="#A9CCEA"/>
<path d="M74.061 88.4673C74.061 89.2662 73.4133 89.914 72.6143 89.914H36.0335C35.2346 89.914 34.5869 89.2662 34.5869 88.4673C34.5869 87.6684 35.2346 87.0207 36.0335 87.0207H49.0195L50.8106 83.7139H53.9106H54.7373H57.8373L59.6284 87.0207H72.6143C73.4133 87.0207 74.061 87.6684 74.061 88.4673Z" fill="#0F3157"/>
<path d="M57.018 80.7173H51.0244V82.474H57.018V80.7173Z" fill="#FF4D6B"/>
<path d="M57.018 77.8237H51.0244V79.5805H57.018V77.8237Z" fill="#FF4D6B"/>
<path d="M101.741 71.8788C100.699 72.2791 99.5666 72.4982 98.3834 72.4982C93.2071 72.4982 89.0107 68.3021 89.0107 63.1256C89.0107 57.9491 93.2069 53.753 98.3834 53.753C103.56 53.753 107.756 57.9491 107.756 63.1256C107.756 64.5126 107.454 65.8292 106.914 67.0135" stroke="#FF4D6B" stroke-width="1.1276" stroke-miterlimit="10" stroke-linecap="round" stroke-linejoin="round"/>
<path d="M75.2771 19.1241H73.7807C73.4701 17.7946 72.9472 16.5473 72.247 15.4204L73.3049 14.3625C73.7609 13.9064 73.7609 13.1668 73.3049 12.7107L70.9543 10.3601C70.4982 9.90405 69.7586 9.90405 69.3025 10.3601L68.2447 11.4178C67.118 10.7175 65.8707 10.1946 64.5412 9.88426V8.38786C64.5412 7.74289 64.0183 7.21999 63.3733 7.21999H60.0492C59.4043 7.21999 58.8814 7.74289 58.8814 8.38786V9.88426C57.5518 10.1946 56.3045 10.7178 55.1776 11.4178L54.1197 10.3601C53.6636 9.90405 52.9241 9.90405 52.468 10.3601L50.1177 12.7107C49.6616 13.1668 49.6616 13.9064 50.1177 14.3625L51.1756 15.4204C50.4754 16.547 49.9525 17.7943 49.6418 19.1241H48.1454C47.5004 19.1241 46.9775 19.647 46.9775 20.292V23.616C46.9775 24.261 47.5004 24.7839 48.1454 24.7839H49.6418C49.9522 26.1134 50.4754 27.3607 51.1753 28.4876L50.1177 29.5455C49.6616 30.0016 49.6616 30.7412 50.1177 31.1973L52.468 33.5479C52.9241 34.004 53.6636 34.004 54.1197 33.5479L55.1776 32.4902C56.3043 33.1905 57.5516 33.7134 58.8814 34.024V35.5204C58.8814 36.1654 59.4043 36.6883 60.0492 36.6883H63.3733C64.0183 36.6883 64.5412 36.1654 64.5412 35.5204V34.024C65.8707 33.7134 67.118 33.1905 68.2449 32.4902L69.3028 33.5479C69.7589 34.004 70.4985 34.004 70.9546 33.5479L73.3051 31.1973C73.7612 30.7412 73.7612 30.0016 73.3051 29.5455L72.2472 28.4876C72.9475 27.361 73.4704 26.1137 73.781 24.7839H75.2774C75.9224 24.7839 76.4453 24.261 76.4453 23.616V20.292C76.445 19.6467 75.9221 19.1241 75.2771 19.1241ZM61.7114 27.8834C58.4368 27.8834 55.7822 25.2287 55.7822 21.9539C55.7822 18.6793 58.4368 16.0246 61.7114 16.0246C64.986 16.0246 67.6409 18.6793 67.6409 21.9539C67.6409 25.2287 64.9863 27.8834 61.7114 27.8834Z" fill="#289DF2"/>
<path d="M13.1476 77.0341C11.4066 77.0341 9.99512 75.6227 9.99512 73.8813V24.5431C9.99512 22.8017 11.4066 21.3903 13.1479 21.3903H95.5001C97.2412 21.3903 98.6529 22.8017 98.6529 24.5428V73.8811C98.6529 75.6221 97.2415 77.0339 95.5001 77.0339H13.1476V77.0341Z" fill="#0F3775"/>
<path d="M25.6043 28.2743H16.459V30.2895H25.6043V28.2743Z" fill="#284D89"/>
<path d="M36.6091 28.2743H27.4639V30.2895H36.6091V28.2743Z" fill="#284D89"/>
<path d="M64.5105 28.2743H55.3652V30.2895H64.5105V28.2743Z" fill="#284D89"/>
<path d="M92.4109 28.2743H83.2656V30.2895H92.4109V28.2743Z" fill="#284D89"/>
<path d="M54.2025 28.2743H37.8496V30.2895H54.2025V28.2743Z" fill="#FF4D6B"/>
<path d="M81.9476 28.2743H65.5947V30.2895H81.9476V28.2743Z" fill="#2889DB"/>
<path d="M18.1124 26.6726H16.5107V27.6544H18.1124V26.6726Z" fill="#2889DB"/>
<path d="M33.2252 31.9429H16.5107V32.9246H33.2252V31.9429Z" fill="white"/>
<path d="M21.4709 33.6738H16.5107V34.6555H21.4709V33.6738Z" fill="white"/>
<path d="M34.207 69.9703H18.7067C17.5509 69.9703 16.6143 69.0334 16.6143 67.8779V39.8221C16.6143 38.6664 17.5512 37.7297 18.7067 37.7297H34.207C35.3628 37.7297 36.2995 38.6666 36.2995 39.8221V67.8779C36.2995 69.0334 35.3628 69.9703 34.207 69.9703Z" fill="#284D89"/>
<path d="M25.6824 42.4572H19.0947V43.4648H25.6824V42.4572Z" fill="white"/>
<path d="M25.6824 44.7047H19.0947V45.7123H25.6824V44.7047Z" fill="white"/>
<path d="M25.6824 46.9522H19.0947V47.9598H25.6824V46.9522Z" fill="white"/>
<path d="M23.1248 56.3301H19.0947V57.3377H23.1248V56.3301Z" fill="white"/>
<path d="M23.1248 58.5776H19.0947V59.5851H23.1248V58.5776Z" fill="white"/>
<path d="M30.0477 58.5776H26.0176V59.5851H30.0477V58.5776Z" fill="white"/>
<path d="M21.6265 53.7725H19.0947V54.7801H21.6265V53.7725Z" fill="white"/>
<path d="M31.2876 53.7725H29.9443V54.7801H31.2876V53.7725Z" fill="white"/>
<path d="M29.4275 53.7725H22.5039V54.7801H29.4275V53.7725Z" fill="#FF4D6B"/>
<path d="M20.0636 49.975H19.0947V50.9826H20.0636V49.975Z" fill="#2889DB"/>
<path d="M20.0636 51.7573H19.0947V52.7649H20.0636V51.7573Z" fill="#FF4D6B"/>
<path d="M24.4682 59.7919H24.1064L24.9719 58.5H25.3337L24.4682 59.7919Z" fill="white"/>
<path d="M34.0527 61.5225H19.0947V62.375H34.0527V61.5225Z" fill="#282E5C"/>
<path d="M34.0527 63.4602H19.0947V64.3127H34.0527V63.4602Z" fill="#282E5C"/>
<path d="M106 51.0598H64.8718C63.8445 51.0598 63.0117 50.2271 63.0117 49.1997V38.0395C63.0117 37.0121 63.8445 36.1794 64.8718 36.1794H106C107.027 36.1794 107.86 37.0121 107.86 38.0395V49.1997C107.859 50.2271 107.027 51.0598 106 51.0598Z" fill="#289DF2"/>
<path d="M76.3418 45.7898C76.3418 45.7898 78.6151 40.2098 85.1253 41.553C91.6354 42.8963 94.9422 50.2331 103.312 44.2398" stroke="white" stroke-width="1.1276" stroke-miterlimit="10"/>
<path d="M97.4222 46.0997H96.4922V47.0297H97.4222V46.0997Z" fill="#289DF2" stroke="white" stroke-width="1.1276" stroke-miterlimit="10"/>
<path d="M77.4785 41.2946H89.2586" stroke="white" stroke-width="0.5638" stroke-miterlimit="10"/>
<path d="M91.0674 46.8233H102.848" stroke="white" stroke-width="0.5638" stroke-miterlimit="10"/>
<path d="M83.3695 40.8297H82.4395V41.7598H83.3695V40.8297Z" fill="#289DF2" stroke="white" stroke-width="1.1276" stroke-miterlimit="10"/>
<path d="M70.8649 54.8834H61.978C61.236 54.8834 60.6348 54.2819 60.6348 53.5402V40.2098C60.6348 39.4677 61.2363 38.8665 61.978 38.8665H70.8649C71.6069 38.8665 72.2081 39.468 72.2081 40.2098V53.5402C72.2081 54.2819 71.6069 54.8834 70.8649 54.8834Z" fill="#284D89"/>
<path d="M69.0291 41.1398H62.4414V42.0482H69.0291V41.1398Z" fill="white"/>
<path d="M69.0291 43.1657H62.4414V44.0741H69.0291V43.1657Z" fill="white"/>
<path d="M64.9215 45.1919H62.4414V46.1002H64.9215V45.1919Z" fill="white"/>
<path d="M66.7299 47.2879H62.4414V48.1962H66.7299V47.2879Z" fill="#289DF2"/>
<path d="M65.3347 49.3141H62.4414V50.2224H65.3347V49.3141Z" fill="#289DF2"/>
<path d="M65.3347 51.34H62.4414V52.2483H65.3347V51.34Z" fill="white"/>
<path d="M100.626 34.1645H105.276" stroke="#284D89" stroke-width="2.2552" stroke-miterlimit="10" stroke-linecap="round" stroke-linejoin="round"/>
<path d="M90.1777 60.4028L88.5727 61.6589L86.2699 62.0776C86.2699 62.0776 84.1069 61.9379 83.8974 61.9379C83.6881 61.9379 82.2228 60.7516 82.2228 60.7516L79.5014 59.7748L77.6173 60.4726L75.3844 59.9841L72.035 59.7746L68.8253 61.0307L66.1737 61.4494L63.8011 62.217L61.1495 62.4265L58.2887 60.1935L55.6371 59.705L52.9156 61.2402L50.7525 61.9379L48.2967 61.8681L45.2016 63.7521H43.356L40.2393 64.8452" stroke="#FF5C66" stroke-width="1.0152" stroke-miterlimit="10"/>
<path d="M40.2861 64.8919H90.2474" stroke="#F7F7F7" stroke-width="0.2538" stroke-miterlimit="10"/>
<path d="M40.3095 64.2638H39.7979V65.5199H40.3095V64.2638Z" fill="#F7F7F7"/>
<path d="M90.4569 64.2638H89.9453V65.5199H90.4569V64.2638Z" fill="#F7F7F7"/>
<path d="M90.2012 64.8919V60.6818" stroke="#F7F7F7" stroke-width="0.2538" stroke-miterlimit="10"/>
<path d="M90.4801 60.4726C90.4801 60.6909 90.3031 60.8679 90.0848 60.8679C89.8665 60.8679 89.6895 60.6909 89.6895 60.4726C89.6895 60.2543 89.8665 60.0772 90.0848 60.0772C90.3031 60.0772 90.4801 60.2543 90.4801 60.4726Z" fill="#F7F7F7"/>
<path d="M41.0708 73.6054V67.6985H41.7514V69.879H41.8091C41.8591 69.8021 41.9283 69.704 42.0168 69.5848C42.1072 69.4637 42.236 69.356 42.4033 69.2618C42.5725 69.1656 42.8013 69.1176 43.0897 69.1176C43.4627 69.1176 43.7916 69.2108 44.0761 69.3973C44.3607 69.5838 44.5828 69.8482 44.7424 70.1905C44.902 70.5328 44.9818 70.9366 44.9818 71.4019C44.9818 71.871 44.902 72.2777 44.7424 72.6219C44.5828 72.9642 44.3617 73.2295 44.079 73.418C43.7964 73.6045 43.4704 73.6977 43.1013 73.6977C42.8167 73.6977 42.5888 73.6506 42.4177 73.5564C42.2466 73.4603 42.1149 73.3516 42.0226 73.2305C41.9303 73.1074 41.8591 73.0055 41.8091 72.9248H41.7284V73.6054H41.0708ZM41.7399 71.3903C41.7399 71.7249 41.7889 72.0201 41.887 72.2758C41.9851 72.5296 42.1283 72.7286 42.3167 72.8728C42.5052 73.0151 42.7359 73.0863 43.009 73.0863C43.2935 73.0863 43.531 73.0113 43.7214 72.8613C43.9137 72.7094 44.0579 72.5056 44.154 72.2498C44.2521 71.9922 44.3011 71.7057 44.3011 71.3903C44.3011 71.0788 44.253 70.7981 44.1569 70.5481C44.0627 70.2963 43.9194 70.0972 43.7271 69.9511C43.5368 69.8031 43.2974 69.729 43.009 69.729C42.7321 69.729 42.4994 69.7992 42.311 69.9396C42.1225 70.078 41.9803 70.2722 41.8841 70.5222C41.788 70.7702 41.7399 71.0596 41.7399 71.3903ZM42.8359 83.6977C42.409 83.6977 42.0408 83.6035 41.7312 83.4151C41.4236 83.2247 41.1861 82.9594 41.0188 82.619C40.8535 82.2768 40.7708 81.8787 40.7708 81.425C40.7708 80.9712 40.8535 80.5712 41.0188 80.2251C41.1861 79.8771 41.4188 79.606 41.7168 79.4118C42.0168 79.2156 42.3667 79.1176 42.7667 79.1176C42.9974 79.1176 43.2253 79.156 43.4503 79.2329C43.6752 79.3098 43.88 79.4348 44.0646 79.6079C44.2492 79.779 44.3963 80.0059 44.5059 80.2886C44.6155 80.5712 44.6703 80.9192 44.6703 81.3327V81.6211H41.2553V81.0327H43.9781C43.9781 80.7827 43.9281 80.5597 43.8281 80.3636C43.73 80.1674 43.5897 80.0126 43.407 79.8992C43.2262 79.7857 43.0128 79.729 42.7667 79.729C42.4956 79.729 42.261 79.7963 42.0629 79.9309C41.8668 80.0636 41.7159 80.2366 41.6101 80.4501C41.5044 80.6635 41.4515 80.8923 41.4515 81.1365V81.5288C41.4515 81.8634 41.5092 82.147 41.6245 82.3796C41.7418 82.6104 41.9043 82.7863 42.112 82.9074C42.3196 83.0267 42.5609 83.0863 42.8359 83.0863C43.0147 83.0863 43.1762 83.0613 43.3205 83.0113C43.4666 82.9594 43.5925 82.8824 43.6983 82.7805C43.804 82.6767 43.8858 82.5479 43.9435 82.3941L44.6011 82.5786C44.5318 82.8017 44.4155 82.9978 44.2521 83.167C44.0886 83.3343 43.8867 83.4651 43.6464 83.5593C43.406 83.6516 43.1359 83.6977 42.8359 83.6977ZM47.6324 79.1752V79.7521H45.3365V79.1752H47.6324ZM46.0057 78.1139H46.6864V82.3364C46.6864 82.5287 46.7142 82.6729 46.77 82.769C46.8277 82.8632 46.9008 82.9267 46.9892 82.9594C47.0796 82.9901 47.1748 83.0055 47.2747 83.0055C47.3497 83.0055 47.4113 83.0017 47.4593 82.994C47.5074 82.9844 47.5459 82.9767 47.5747 82.9709L47.7131 83.5824C47.667 83.5997 47.6026 83.617 47.5199 83.6343C47.4372 83.6535 47.3324 83.6631 47.2055 83.6631C47.0132 83.6631 46.8248 83.6218 46.6402 83.5391C46.4575 83.4564 46.3056 83.3305 46.1845 83.1613C46.0653 82.9921 46.0057 82.7786 46.0057 82.521V78.1139ZM42.2821 93.7093C42.0014 93.7093 41.7466 93.6564 41.5178 93.5506C41.289 93.443 41.1073 93.2882 40.9727 93.0863C40.8381 92.8824 40.7708 92.6363 40.7708 92.3479C40.7708 92.0941 40.8208 91.8884 40.9208 91.7307C41.0208 91.5711 41.1544 91.4461 41.3217 91.3557C41.489 91.2654 41.6736 91.1981 41.8755 91.1538C42.0793 91.1077 42.2841 91.0712 42.4898 91.0442C42.759 91.0096 42.9772 90.9837 43.1445 90.9664C43.3137 90.9471 43.4368 90.9154 43.5137 90.8712C43.5925 90.827 43.632 90.75 43.632 90.6404V90.6174C43.632 90.3328 43.5541 90.1117 43.3983 89.954C43.2445 89.7963 43.0109 89.7175 42.6975 89.7175C42.3725 89.7175 42.1177 89.7886 41.9331 89.9309C41.7486 90.0732 41.6188 90.2251 41.5438 90.3866L40.8977 90.1559C41.0131 89.8867 41.1669 89.6771 41.3592 89.5271C41.5534 89.3752 41.7649 89.2695 41.9937 89.2099C42.2245 89.1483 42.4513 89.1176 42.6744 89.1176C42.8167 89.1176 42.9801 89.1349 43.1647 89.1695C43.3512 89.2022 43.531 89.2704 43.7041 89.3743C43.879 89.4781 44.0242 89.6348 44.1396 89.8444C44.255 90.054 44.3126 90.3347 44.3126 90.6866V93.6054H43.632V93.0055H43.5973C43.5512 93.1017 43.4743 93.2045 43.3666 93.3141C43.2589 93.4237 43.1157 93.517 42.9369 93.5939C42.758 93.6708 42.5398 93.7093 42.2821 93.7093ZM42.386 93.0978C42.6552 93.0978 42.8821 93.0449 43.0666 92.9392C43.2532 92.8334 43.3935 92.6969 43.4877 92.5296C43.5839 92.3623 43.632 92.1864 43.632 92.0018V91.3788C43.6031 91.4134 43.5397 91.4451 43.4416 91.474C43.3455 91.5009 43.2339 91.5249 43.107 91.5461C42.982 91.5653 42.8599 91.5826 42.7407 91.598C42.6234 91.6115 42.5283 91.623 42.4552 91.6326C42.2783 91.6557 42.1129 91.6932 41.9591 91.7451C41.8072 91.7951 41.6841 91.871 41.5899 91.973C41.4976 92.0729 41.4515 92.2095 41.4515 92.3825C41.4515 92.619 41.539 92.7978 41.7139 92.919C41.8908 93.0382 42.1149 93.0978 42.386 93.0978ZM42.9051 99.1752V99.7521H40.6093V99.1752H42.9051ZM41.2784 98.1139H41.9591V102.336C41.9591 102.529 41.987 102.673 42.0427 102.769C42.1004 102.863 42.1735 102.927 42.2619 102.959C42.3523 102.99 42.4475 103.006 42.5475 103.006C42.6225 103.006 42.684 103.002 42.7321 102.994C42.7801 102.984 42.8186 102.977 42.8474 102.971L42.9859 103.582C42.9397 103.6 42.8753 103.617 42.7926 103.634C42.71 103.654 42.6052 103.663 42.4783 103.663C42.286 103.663 42.0975 103.622 41.913 103.539C41.7303 103.456 41.5784 103.33 41.4572 103.161C41.338 102.992 41.2784 102.779 41.2784 102.521V98.1139ZM45.7389 103.698C45.312 103.698 44.9438 103.604 44.6342 103.415C44.3266 103.225 44.0891 102.959 43.9218 102.619C43.7565 102.277 43.6738 101.879 43.6738 101.425C43.6738 100.971 43.7565 100.571 43.9218 100.225C44.0891 99.8771 44.3218 99.606 44.6198 99.4118C44.9198 99.2156 45.2697 99.1176 45.6697 99.1176C45.9004 99.1176 46.1283 99.156 46.3532 99.2329C46.5782 99.3098 46.783 99.4348 46.9676 99.6079C47.1522 99.779 47.2993 100.006 47.4089 100.289C47.5185 100.571 47.5733 100.919 47.5733 101.333V101.621H44.1583V101.033H46.881C46.881 100.783 46.8311 100.56 46.7311 100.364C46.633 100.167 46.4926 100.013 46.31 99.8992C46.1292 99.7857 45.9158 99.729 45.6697 99.729C45.3985 99.729 45.164 99.7963 44.9659 99.9309C44.7698 100.064 44.6188 100.237 44.5131 100.45C44.4073 100.664 44.3545 100.892 44.3545 101.137V101.529C44.3545 101.863 44.4121 102.147 44.5275 102.38C44.6448 102.61 44.8073 102.786 45.0149 102.907C45.2226 103.027 45.4639 103.086 45.7389 103.086C45.9177 103.086 46.0792 103.061 46.2234 103.011C46.3696 102.959 46.4955 102.882 46.6013 102.781C46.707 102.677 46.7888 102.548 46.8464 102.394L47.504 102.579C47.4348 102.802 47.3185 102.998 47.155 103.167C46.9916 103.334 46.7897 103.465 46.5494 103.559C46.309 103.652 46.0388 103.698 45.7389 103.698ZM44.1165 110.167L43.5051 110.34C43.4666 110.239 43.4099 110.14 43.3349 110.043C43.2618 109.945 43.1618 109.865 43.0349 109.801C42.908 109.738 42.7455 109.706 42.5475 109.706C42.2764 109.706 42.0504 109.768 41.8697 109.893C41.6909 110.016 41.6015 110.173 41.6015 110.364C41.6015 110.533 41.663 110.666 41.786 110.764C41.9091 110.863 42.1014 110.944 42.3629 111.01L43.0205 111.171C43.4166 111.267 43.7118 111.414 43.906 111.612C44.1002 111.809 44.1973 112.061 44.1973 112.371C44.1973 112.625 44.1242 112.852 43.9781 113.052C43.8339 113.252 43.632 113.409 43.3724 113.525C43.1128 113.64 42.8109 113.698 42.4667 113.698C42.0149 113.698 41.6409 113.6 41.3448 113.404C41.0486 113.207 40.8612 112.921 40.7823 112.544L41.4284 112.383C41.4899 112.621 41.6063 112.8 41.7774 112.919C41.9504 113.038 42.1764 113.098 42.4552 113.098C42.7725 113.098 43.0243 113.031 43.2109 112.896C43.3993 112.759 43.4935 112.596 43.4935 112.406C43.4935 112.252 43.4397 112.123 43.332 112.019C43.2243 111.913 43.059 111.835 42.8359 111.783L42.0975 111.61C41.6918 111.513 41.3938 111.364 41.2034 111.162C41.015 110.959 40.9208 110.704 40.9208 110.398C40.9208 110.148 40.991 109.927 41.1313 109.735C41.2736 109.543 41.4669 109.392 41.7111 109.282C41.9572 109.172 42.236 109.118 42.5475 109.118C42.9859 109.118 43.3301 109.214 43.58 109.406C43.8319 109.598 44.0108 109.852 44.1165 110.167ZM47.1486 109.175V109.752H44.8527V109.175H47.1486ZM45.5219 108.114H46.2025V112.336C46.2025 112.529 46.2304 112.673 46.2862 112.769C46.3439 112.863 46.4169 112.927 46.5054 112.959C46.5957 112.99 46.6909 113.006 46.7909 113.006C46.8659 113.006 46.9274 113.002 46.9755 112.994C47.0236 112.984 47.062 112.977 47.0909 112.971L47.2293 113.582C47.1832 113.6 47.1188 113.617 47.0361 113.634C46.9534 113.654 46.8486 113.663 46.7217 113.663C46.5294 113.663 46.341 113.622 46.1564 113.539C45.9737 113.456 45.8218 113.33 45.7007 113.161C45.5815 112.992 45.5219 112.779 45.5219 112.521V108.114Z" fill="#F7F7F7"/>
<path d="M82.8979 66.7062H51.8232V67.2642H82.8979V66.7062Z" fill="#28385E"/>
<path d="M70.8959 66.7062H51.8232V67.2642H70.8959V66.7062Z" fill="#FF4D6B"/>
<path d="M67.1048 67.7759H51.8232V68.334H67.1048V67.7759Z" fill="#28385E"/>
<path d="M42.1355 69.4392H44.0195L44.2639 68.9157H40.4609V69.788H41.7866L42.1355 69.4392Z" fill="#FF4D6B"/>
<path d="M46.0405 68.9099H45.8311V69.1191H46.0405V68.9099Z" fill="#F7F7F7"/>
<path d="M47.3401 68.9099H47.1309V69.1191H47.3401V68.9099Z" fill="#F7F7F7"/>
<path d="M48.6402 68.9099H48.4307V69.1191H48.6402V68.9099Z" fill="#F7F7F7"/>
<path d="M90.2152 64.9252C89.8768 64.9252 89.572 64.8579 89.3009 64.7233C89.0298 64.5887 88.8125 64.4041 88.649 64.1695C88.4856 63.935 88.3962 63.6677 88.3808 63.3677H89.073C89.0999 63.635 89.2211 63.8561 89.4364 64.0311C89.6537 64.2041 89.9133 64.2907 90.2152 64.2907C90.4575 64.2907 90.6728 64.234 90.8612 64.1205C91.0516 64.0071 91.2006 63.8513 91.3083 63.6533C91.4179 63.4533 91.4727 63.2274 91.4727 62.9755C91.4727 62.7178 91.416 62.488 91.3025 62.2861C91.191 62.0823 91.0372 61.9218 90.8411 61.8045C90.6449 61.6872 90.4209 61.6276 90.169 61.6256C89.9883 61.6237 89.8027 61.6516 89.6124 61.7093C89.422 61.765 89.2653 61.8372 89.1422 61.9256L88.4731 61.8448L88.8307 58.9375H91.8996V59.5721H89.4307L89.223 61.3141H89.2576C89.3788 61.218 89.5307 61.1382 89.7133 61.0748C89.896 61.0113 90.0863 60.9796 90.2844 60.9796C90.6459 60.9796 90.968 61.0661 91.2506 61.2392C91.5352 61.4103 91.7582 61.6449 91.9198 61.9429C92.0832 62.2409 92.1649 62.5813 92.1649 62.9639C92.1649 63.3408 92.0803 63.6773 91.9111 63.9734C91.7438 64.2676 91.5131 64.5003 91.2189 64.6714C90.9247 64.8406 90.5901 64.9252 90.2152 64.9252ZM90.2959 74.9252C89.8614 74.9252 89.4912 74.807 89.1855 74.5704C88.8798 74.332 88.6462 73.9869 88.4846 73.535C88.3231 73.0812 88.2424 72.5332 88.2424 71.891C88.2424 71.2526 88.3231 70.7075 88.4846 70.2556C88.6481 69.8018 88.8827 69.4557 89.1884 69.2173C89.496 68.977 89.8652 68.8568 90.2959 68.8568C90.7266 68.8568 91.0949 68.977 91.4006 69.2173C91.7083 69.4557 91.9428 69.8018 92.1044 70.2556C92.2678 70.7075 92.3495 71.2526 92.3495 71.891C92.3495 72.5332 92.2688 73.0812 92.1072 73.535C91.9457 73.9869 91.7121 74.332 91.4064 74.5704C91.1006 74.807 90.7305 74.9252 90.2959 74.9252ZM90.2959 74.2907C90.7266 74.2907 91.0612 74.083 91.2997 73.6677C91.5381 73.2524 91.6573 72.6601 91.6573 71.891C91.6573 71.3795 91.6025 70.944 91.4929 70.5844C91.3852 70.2249 91.2295 69.9509 91.0256 69.7624C90.8238 69.574 90.5805 69.4798 90.2959 69.4798C89.8691 69.4798 89.5355 69.6903 89.2951 70.1114C89.0548 70.5306 88.9346 71.1238 88.9346 71.891C88.9346 72.4025 88.9884 72.837 89.0961 73.1947C89.2038 73.5523 89.3586 73.8244 89.5605 74.0109C89.7643 74.1974 90.0094 74.2907 90.2959 74.2907ZM90.2959 84.9252C89.8614 84.9252 89.4912 84.807 89.1855 84.5704C88.8798 84.332 88.6462 83.9869 88.4846 83.535C88.3231 83.0812 88.2424 82.5332 88.2424 81.891C88.2424 81.2526 88.3231 80.7075 88.4846 80.2556C88.6481 79.8018 88.8827 79.4557 89.1884 79.2173C89.496 78.977 89.8652 78.8568 90.2959 78.8568C90.7266 78.8568 91.0949 78.977 91.4006 79.2173C91.7083 79.4557 91.9428 79.8018 92.1044 80.2556C92.2678 80.7075 92.3495 81.2526 92.3495 81.891C92.3495 82.5332 92.2688 83.0812 92.1072 83.535C91.9457 83.9869 91.7121 84.332 91.4064 84.5704C91.1006 84.807 90.7305 84.9252 90.2959 84.9252ZM90.2959 84.2907C90.7266 84.2907 91.0612 84.083 91.2997 83.6677C91.5381 83.2524 91.6573 82.6601 91.6573 81.891C91.6573 81.3795 91.6025 80.944 91.4929 80.5844C91.3852 80.2249 91.2295 79.9509 91.0256 79.7624C90.8238 79.574 90.5805 79.4798 90.2959 79.4798C89.8691 79.4798 89.5355 79.6903 89.2951 80.1114C89.0548 80.5306 88.9346 81.1238 88.9346 81.891C88.9346 82.4025 88.9884 82.837 89.0961 83.1947C89.2038 83.5523 89.3586 83.8244 89.5605 84.0109C89.7643 84.1974 90.0094 84.2907 90.2959 84.2907Z" fill="#F7F7F7"/>
<path d="M85.1306 68.3807H84.6651L83.9209 66.7062H84.3861L85.1306 68.3807Z" fill="#28385E"/>
<path d="M86.3402 68.3807H85.8751L85.1309 66.7062H85.596L86.3402 68.3807Z" fill="#28385E"/>
<path d="M87.5492 68.3807H87.0841L86.3398 66.7062H86.805L87.5492 68.3807Z" fill="#28385E"/>
<path d="M88.7585 68.3807H88.2933L87.5488 66.7062H88.014L88.7585 68.3807Z" fill="#28385E"/>
<path d="M89.945 68.3807H89.4796L88.7354 66.7062H89.2005L89.945 68.3807Z" fill="#28385E"/>
<path d="M87.9252 10.7228H80.3613V12.0776H87.9252V10.7228Z" fill="#A9CCEA"/>
<path d="M91.7662 13.147H80.3613V14.5016H91.7662V13.147Z" fill="#A9CCEA"/>
<path d="M94.4255 15.5713H80.3613V16.9261H94.4255V15.5713Z" fill="#A9CCEA"/>
<path d="M85.7388 17.9955H80.3613V19.3504H85.7388V17.9955Z" fill="#A9CCEA"/>
<path d="M8.56392 27.0498H1V28.4046H8.56392V27.0498Z" fill="#2889DB"/>
<path d="M12.4048 29.4741H1V30.8286H12.4048V29.4741Z" fill="#A9CCEA"/>
<path d="M15.0642 31.8981H1V33.2529H15.0642V31.8981Z" fill="#A9CCEA"/>
<path d="M6.37747 34.3226H1V35.6774H6.37747V34.3226Z" fill="#A9CCEA"/>
<path d="M52.1097 74.6203H19.8691V78.8055H52.1097V74.6203Z" stroke="#289DF2" stroke-width="1.1276" stroke-miterlimit="10"/>
<path d="M36.9709 41.6564H35.4209V51.1632H36.9709V41.6564Z" stroke="#289DF2" stroke-width="1.1276" stroke-miterlimit="10"/>
<path d="M99.2279 68.3985C102.141 67.9287 104.121 65.1866 103.651 62.2738C103.182 59.361 100.44 57.3804 97.5268 57.8501C94.6141 58.3198 92.6337 61.0619 93.1035 63.9748C93.5732 66.8876 96.3152 68.8682 99.2279 68.3985Z" fill="#FF4D6B"/>
<path d="M97.9971 62.6246L95.8752 63.4021L97.9971 64.1733V64.97L94.9639 63.8164V62.9881L97.9971 61.8348V62.6246Z" fill="#F9FBFC"/>
<path d="M98.6904 61.8345L101.724 62.9878V63.8162L98.6904 64.9698V64.173L100.812 63.4019L98.6904 62.6244V61.8345Z" fill="#F9FBFC"/>
<path d="M107.291 67.4902C107.291 67.8754 106.979 68.1877 106.594 68.1877C106.209 68.1877 105.896 67.8754 105.896 67.4902C105.896 67.1051 106.209 66.7928 106.594 66.7928C106.979 66.7928 107.291 67.1051 107.291 67.4902Z" stroke="#FF4D6B" stroke-width="1.1276" stroke-miterlimit="10"/>
<path d="M43.4296 16.9591H18.1641V19.5942H43.4296V16.9591Z" stroke="#289DF2" stroke-width="1.1276" stroke-miterlimit="10"/>
<path d="M34.9044 17.8116H19.249V18.5866H34.9044V17.8116Z" fill="#289DF2"/>
<path d="M58.1552 37.523H39.6582V38.453H58.1552V37.523Z" fill="#284D89"/>
<path d="M48.0414 37.523H39.6582V38.453H48.0414V37.523Z" fill="#2889DB"/>
<path d="M58.1552 39.9255H39.6582V40.8556H58.1552V39.9255Z" fill="#284D89"/>
<path d="M52.5364 39.9255H39.6582V40.8556H52.5364V39.9255Z" fill="#FF4D6B"/>
<path d="M58.1552 42.328H39.6582V43.2581H58.1552V42.328Z" fill="#284D89"/>
<path d="M43.4299 42.328H39.6582V43.2581H43.4299V42.328Z" fill="#1AE5FF"/>
<path d="M40.0971 35.8954H39.7354V36.2572H40.0971V35.8954Z" fill="#284D89"/>
<path d="M41.3374 35.8954H40.9756V36.2572H41.3374V35.8954Z" fill="#284D89"/>
<path d="M42.5766 35.8954H42.2148V36.2572H42.5766V35.8954Z" fill="#284D89"/>
<path d="M74.7569 48.5627H74.1543V49.1656H74.7569V48.5627Z" fill="white"/>
<path d="M76.8246 48.5627H76.2217V49.1656H76.8246V48.5627Z" fill="white"/>
<path d="M78.891 48.5627H78.2881V49.1656H78.891V48.5627Z" fill="white"/>
<path d="M83.9857 24.6093H82.8555V25.7395H83.9857V24.6093Z" fill="white"/>
<path d="M87.8607 24.6093H86.7305V25.7395H87.8607V24.6093Z" fill="white"/>
<path d="M91.7357 24.6093H90.6055V25.7395H91.7357V24.6093Z" fill="white"/>
<path d="M67.9691 71.3169H66.8389V72.4471H67.9691V71.3169Z" fill="white"/>
<path d="M71.8441 71.3169H70.7139V72.4471H71.8441V71.3169Z" fill="white"/>
<path d="M75.7191 71.3169H74.5889V72.4471H75.7191V71.3169Z" fill="white"/>
<path d="M20.0245 40.0201H19.4219V40.623H20.0245V40.0201Z" fill="white"/>
<path d="M22.0912 40.0201H21.4883V40.623H22.0912V40.0201Z" fill="white"/>
<path d="M24.1586 40.0201H23.5557V40.623H24.1586V40.0201Z" fill="white"/>
<path d="M103.934 39.2797H93.9102V40.2614H103.934V39.2797Z" fill="white"/>
<path d="M96.8848 41.0106H93.9102V41.9924H96.8848V41.0106Z" fill="#287DD1"/>
<path d="M13.0484 41.2946H10.8785V39.1246H8.86332V41.2946H6.69336V43.3098H8.86332V45.4797H10.8785V43.3098H13.0484V41.2946Z" fill="#1AE5FF"/>
<path d="M7.24248 47.3399H5.91929V46.0167H4.69066V47.3399H3.36719V48.5685H4.69066V49.8917H5.91929V48.5685H7.24248V47.3399Z" fill="#2889DB"/>
<path d="M43.4591 46.1844C41.5849 46.1844 40.0654 47.7039 40.0654 49.578C40.0654 51.4524 41.5849 52.9716 43.4591 52.9716C45.3335 52.9716 46.8527 51.4521 46.8527 49.578C46.8527 47.7039 45.3332 46.1844 43.4591 46.1844ZM43.4591 51.3466C42.4823 51.3466 41.6908 50.5548 41.6908 49.578C41.6908 48.6012 42.4825 47.8094 43.4591 47.8094C44.4359 47.8094 45.2276 48.6012 45.2276 49.578C45.2276 50.5548 44.4356 51.3466 43.4591 51.3466Z" fill="#284D89"/>
<path d="M41.1487 49.2434C41.464 49.2434 41.7403 49.0559 41.8838 48.7749C42.176 48.202 42.7715 47.8094 43.4588 47.8094C44.1464 47.8094 44.7416 48.202 45.0341 48.7749C45.1774 49.0559 45.4539 49.2434 45.7693 49.2434C46.3631 49.2434 46.7694 48.6213 46.5083 48.0876C45.9565 46.9605 44.7985 46.1844 43.4591 46.1844C42.1197 46.1844 40.9617 46.9605 40.41 48.0879C40.1485 48.6213 40.5546 49.2434 41.1487 49.2434Z" fill="#289DF2"/>
<path d="M49.1582 49.578C49.1582 51.4521 50.6777 52.9716 52.5518 52.9716C54.4263 52.9716 55.9455 51.4521 55.9455 49.578C55.9455 47.7036 54.426 46.1844 52.5518 46.1844C50.6777 46.1844 49.1582 47.7039 49.1582 49.578ZM54.3204 49.578C54.3204 50.5545 53.5286 51.3463 52.5518 51.3463C51.575 51.3463 50.7833 50.5545 50.7833 49.578C50.7833 48.6012 51.575 47.8094 52.5518 47.8094C53.5286 47.8094 54.3204 48.6012 54.3204 49.578Z" fill="#284D89"/>
<path d="M52.2175 51.8882C52.2175 51.5728 52.03 51.2965 51.7491 51.153C51.1761 50.8608 50.7835 50.2653 50.7835 49.578C50.7835 48.8904 51.1761 48.2952 51.7491 48.0027C52.03 47.8595 52.2175 47.5829 52.2175 47.2675C52.2175 46.6737 51.5954 46.2674 51.0618 46.5286C49.9346 47.0803 49.1582 48.2383 49.1582 49.578C49.1582 50.9174 49.9346 52.0754 51.0618 52.6271C51.5951 52.8883 52.2175 52.4823 52.2175 51.8882Z" fill="#FF4D6B"/>
<path d="M33.7674 36.1797H27.5674V51.0601H33.7674V36.1797Z" stroke="#289DF2" stroke-width="1.1276" stroke-miterlimit="10"/>
<path d="M30.2547 39.0471H28.4463V39.5816H30.2547V39.0471Z" fill="#1AE5FF"/>
<path d="M30.2547 40.2395H28.4463V40.7739H30.2547V40.2395Z" fill="#1AE5FF"/>
<path d="M30.2547 41.4318H28.4463V41.9662H30.2547V41.4318Z" fill="#1AE5FF"/>
<path d="M30.2547 47.6321H28.4463V48.1665H30.2547V47.6321Z" fill="#1AE5FF"/>
<path d="M31.0814 43.1806H28.4463V43.715H31.0814V43.1806Z" fill="#1AE5FF"/>
<path d="M31.0814 44.3729H28.4463V44.9073H31.0814V44.3729Z" fill="white"/>
<path d="M31.0814 45.5652H28.4463V46.0997H31.0814V45.5652Z" fill="white"/>
<path d="M13.204 54.7801H5.35059V62.6335H13.204V54.7801Z" fill="#289DF2"/>
<path d="M9.07118 56.6399H1.21777V64.4933H9.07118V56.6399Z" stroke="#289DF2" stroke-width="1.1276" stroke-miterlimit="10"/>
<path d="M102.073 77.5139H98.7666V80.8206H102.073V77.5139Z" stroke="#289DF2" stroke-width="1.1276" stroke-miterlimit="10"/>
<path d="M59.0859 72.2953H61.8761L63.4261 73.8453H79.5464L82.0265 71.3653H90.7069" stroke="white" stroke-width="1.1276" stroke-miterlimit="10"/>
<path d="M58.2718 73.1478C58.7212 73.1478 59.0855 72.7835 59.0855 72.3341C59.0855 71.8846 58.7212 71.5203 58.2718 71.5203C57.8223 71.5203 57.458 71.8846 57.458 72.3341C57.458 72.7835 57.8223 73.1478 58.2718 73.1478Z" stroke="white" stroke-width="1.1276" stroke-miterlimit="10"/>
<path d="M91.5462 72.1403C91.9956 72.1403 92.36 71.7759 92.36 71.3265C92.36 70.8771 91.9956 70.5127 91.5462 70.5127C91.0968 70.5127 90.7324 70.8771 90.7324 71.3265C90.7324 71.7759 91.0968 72.1403 91.5462 72.1403Z" stroke="white" stroke-width="1.1276" stroke-miterlimit="10"/>
<path d="M102.486 28.5327C102.486 29.1035 102.023 29.5662 101.452 29.5662C100.882 29.5662 100.419 29.1035 100.419 28.5327C100.419 27.962 100.882 27.4993 101.452 27.4993C102.023 27.4993 102.486 27.962 102.486 28.5327Z" fill="#289DF2"/>
<path d="M7.00338 68.8338C7.00338 69.4045 6.54069 69.8672 5.96995 69.8672C5.39922 69.8672 4.93652 69.4045 4.93652 68.8338C4.93652 68.263 5.39922 67.8003 5.96995 67.8003C6.54096 67.8003 7.00338 68.263 7.00338 68.8338Z" fill="#FF4D6B"/>
<path d="M11.7575 72.6571C11.7575 73.6559 10.9478 74.4655 9.94906 74.4655C8.95027 74.4655 8.14062 73.6559 8.14062 72.6571C8.14062 71.6583 8.95027 70.8487 9.94906 70.8487C10.9478 70.8487 11.7575 71.6583 11.7575 72.6571Z" fill="#FF4D6B"/>
<path d="M73.3458 78.7538H66.1123V80.4072H73.3458V78.7538Z" stroke="#289DF2" stroke-width="1.1276" stroke-miterlimit="10"/>
<path d="M81.9742 81.8538H66.1123V83.5072H81.9742V81.8538Z" stroke="#289DF2" stroke-width="1.1276" stroke-miterlimit="10"/>
<path d="M21.7991 80.3373L20.0459 82.0905" stroke="#289DF2" stroke-width="1.1276" stroke-miterlimit="10" stroke-linecap="round" stroke-linejoin="round"/>
<path d="M23.4846 80.3373L21.7314 82.0905" stroke="#289DF2" stroke-width="1.1276" stroke-miterlimit="10" stroke-linecap="round" stroke-linejoin="round"/>
<path d="M25.1702 80.3373L23.417 82.0905" stroke="#289DF2" stroke-width="1.1276" stroke-miterlimit="10" stroke-linecap="round" stroke-linejoin="round"/>
<path d="M26.8567 80.3373L25.1035 82.0905" stroke="#289DF2" stroke-width="1.1276" stroke-miterlimit="10" stroke-linecap="round" stroke-linejoin="round"/>
<path d="M28.5413 80.3373L26.7881 82.0905" stroke="#289DF2" stroke-width="1.1276" stroke-miterlimit="10" stroke-linecap="round" stroke-linejoin="round"/>
</svg>
