<svg width="150" height="150" viewBox="0 0 150 150" fill="none" xmlns="http://www.w3.org/2000/svg">
<g filter="url(#filter0_d_51_3070)">
<path d="M73.599 110.945C96.4656 110.945 115.003 92.4075 115.003 69.5409C115.003 46.6743 96.4656 28.1372 73.599 28.1372C50.7324 28.1372 32.1953 46.6743 32.1953 69.5409C32.1953 92.4075 50.7324 110.945 73.599 110.945Z" fill="#F2F6F9"/>
<path d="M55.6875 48.729C57.5347 40.9059 52.6904 33.0665 44.8672 31.2192C37.0441 29.372 29.2047 34.2164 27.3575 42.0395C25.5102 49.8626 30.3546 57.702 38.1777 59.5493C46.0008 61.3965 53.8402 56.5521 55.6875 48.729Z" fill="#D2DFEE"/>
<path d="M41.5221 59.937C46.054 59.937 49.7278 53.4205 49.7278 45.3819C49.7278 37.3434 46.054 30.8268 41.5221 30.8268C36.9902 30.8268 33.3164 37.3434 33.3164 45.3819C33.3164 53.4205 36.9902 59.937 41.5221 59.937Z" stroke="white" stroke-miterlimit="10"/>
<path d="M41.5229 54.8526C49.5614 54.8526 56.078 50.6124 56.078 45.3817C56.078 40.1511 49.5614 35.9108 41.5229 35.9108C33.4843 35.9108 26.9678 40.1511 26.9678 45.3817C26.9678 50.6124 33.4843 54.8526 41.5229 54.8526Z" stroke="white" stroke-miterlimit="10"/>
<path d="M26.9678 45.3817H56.0398" stroke="white" stroke-miterlimit="10"/>
<path d="M41.5225 30.8266V59.937" stroke="white" stroke-miterlimit="10"/>
<path d="M125.399 125.179H25.9815C24.5895 125.179 23.4609 124.05 23.4609 122.658C23.4609 121.266 24.5893 120.138 25.9815 120.138H125.399C126.791 120.138 127.92 121.266 127.92 122.658C127.92 124.05 126.791 125.179 125.399 125.179Z" fill="#E1E8EF"/>
<path d="M105.81 78.5808C99.2782 78.5808 93.9834 83.8757 93.9834 90.407C93.9834 96.9383 99.2782 102.233 105.81 102.233C112.341 102.233 117.636 96.9383 117.636 90.407C117.636 83.8754 112.341 78.5808 105.81 78.5808ZM105.81 97.7575C101.75 97.7575 98.459 94.4665 98.459 90.407C98.459 86.3475 101.75 83.0564 105.81 83.0564C109.869 83.0564 113.16 86.3475 113.16 90.407C113.16 94.4665 109.869 97.7575 105.81 97.7575Z" fill="#E2EAF2"/>
<path d="M109.747 79.6239L110.876 77.8586C110.876 77.8586 114.088 78.7556 115.535 81.3022L114.175 82.6622L109.747 79.6239Z" fill="#E2EAF2"/>
<path d="M116.75 86.9544L118.621 86.3564C118.621 86.3564 119.817 89.1537 119.432 91.5264L117.117 92.1437L116.75 86.9544Z" fill="#E2EAF2"/>
<path d="M116.267 95.1339L118.235 96.3492C118.235 96.3492 116.904 99.1658 115.264 100.304L113.644 98.9149L116.267 95.1339Z" fill="#E2EAF2"/>
<path d="M105.552 101.789L106.391 104.104C106.391 104.104 109.748 103.931 111.484 102.947L110.761 100.458L105.552 101.789Z" fill="#E2EAF2"/>
<path d="M100.082 80.6945L99.7637 78.4375C99.7637 78.4375 102.31 77.0196 105.262 77.1065L105.867 78.8987L100.082 80.6945Z" fill="#E2EAF2"/>
<path d="M97.1308 82.9419L95.2208 81.6302C95.2208 81.6302 93.1375 83.4435 92.5586 86.5301L94.6035 87.649L97.1308 82.9419Z" fill="#E2EAF2"/>
<path d="M103.493 47.2291C97.8008 47.2291 93.1865 51.8436 93.1865 57.5356C93.1865 63.2279 97.801 67.8422 103.493 67.8422C109.185 67.8422 113.8 63.2277 113.8 57.5356C113.8 51.8436 109.185 47.2291 103.493 47.2291ZM103.493 63.9418C99.955 63.9418 97.0869 61.0737 97.0869 57.5359C97.0869 53.998 99.955 51.1297 103.493 51.1297C107.031 51.1297 109.899 53.9978 109.899 57.5359C109.899 61.0737 107.031 63.9418 103.493 63.9418Z" fill="#E2EAF2"/>
<path d="M106.924 48.1383L107.907 46.6C107.907 46.6 110.707 47.3818 111.967 49.6011L110.782 50.7863L106.924 48.1383Z" fill="#E2EAF2"/>
<path d="M113.027 54.527L114.658 54.0058C114.658 54.0058 115.701 56.4436 115.364 58.5115L113.347 59.0495L113.027 54.527Z" fill="#E2EAF2"/>
<path d="M112.607 61.6554L114.322 62.7145C114.322 62.7145 113.162 65.1691 111.733 66.1611L110.32 64.9506L112.607 61.6554Z" fill="#E2EAF2"/>
<path d="M97.9464 65.4205L96.8398 67.1052C96.8398 67.1052 98.9285 68.8397 100.643 69.1345L101.411 67.4406L97.9464 65.4205Z" fill="#E2EAF2"/>
<path d="M103.268 67.4557L103.999 69.4733C103.999 69.4733 106.924 69.322 108.438 68.4645L107.807 66.2956L103.268 67.4557Z" fill="#E2EAF2"/>
<path d="M98.501 49.0712L98.2236 47.1042C98.2236 47.1042 100.443 45.8684 103.015 45.9441L103.543 47.506L98.501 49.0712Z" fill="#E2EAF2"/>
<path d="M95.9289 51.0298L94.2643 49.8865C94.2643 49.8865 92.4485 51.4668 91.9443 54.1569L93.7264 55.1321L95.9289 51.0298Z" fill="#E2EAF2"/>
<path d="M76.3091 29.0968C69.7014 32.3214 66.9591 40.292 70.1837 46.8995C73.4083 53.5072 81.379 56.2494 87.9864 53.0248C94.5941 49.8002 97.3364 41.8296 94.1118 35.2221C90.8874 28.6145 82.9168 25.8722 76.3091 29.0968ZM85.7768 48.4971C81.6699 50.5013 76.7157 48.7967 74.7115 44.6899C72.7073 40.583 74.4118 35.6288 78.5187 33.6246C82.6258 31.6203 87.5798 33.3249 89.584 37.4318C91.5885 41.5386 89.8839 46.4928 85.7768 48.4971Z" fill="#E2EAF2"/>
<path d="M80.8076 28.2081L81.0779 25.8651C81.0779 25.8651 84.7703 25.1868 87.4912 27.0486L86.7867 29.0961L80.8076 28.2081Z" fill="#E2EAF2"/>
<path d="M91.5107 32.1668L93.1086 30.638C93.1086 30.638 95.6995 32.8773 96.4808 35.4683L94.4437 37.2356L91.5107 32.1668Z" fill="#E2EAF2"/>
<path d="M95.0607 40.6798L97.6514 40.9379C97.6514 40.9379 97.6954 44.4445 96.5985 46.4055L94.2734 45.8003L95.0607 40.6798Z" fill="#E2EAF2"/>
<path d="M80.1767 53.3554L79.8467 55.9378C79.8467 55.9378 83.2539 56.7679 85.4111 56.1391L85.3434 53.7374L80.1767 53.3554Z" fill="#E2EAF2"/>
<path d="M87.5059 52.7035L89.4977 54.6312C89.4977 54.6312 92.8078 52.7983 94.0786 50.9459L92.118 48.7855L87.5059 52.7035Z" fill="#E2EAF2"/>
<path d="M71.5584 34.0627L70.1221 31.9364C70.1221 31.9364 71.9982 29.2447 75.0271 27.8753L76.5241 29.3896L71.5584 34.0627Z" fill="#E2EAF2"/>
<path d="M69.6816 37.7936L67.1019 37.4092C67.1019 37.4092 65.8896 40.2723 66.8278 43.6807L69.4488 43.803L69.6816 37.7936Z" fill="#E2EAF2"/>
<path d="M35.7609 48.2491C35.7609 48.2491 35.758 48.2512 35.7524 48.2551C34.5721 49.0811 33.874 50.4355 33.874 51.8762V51.9915C33.874 52.1624 33.9014 52.3323 33.9548 52.4947L56.7399 121.586C56.9966 122.365 57.7533 122.866 58.5703 122.799L103.611 119.094C103.611 119.094 105.543 117.582 105.783 116.081L35.7609 48.2491Z" fill="#433E51"/>
<path d="M35.3793 49.341L58.1926 118.583C58.5928 119.798 59.7761 120.578 61.0505 120.467L104.986 116.654C105.611 116.6 106.018 115.973 105.813 115.38L81.8069 45.8923C81.4759 44.9344 80.5366 44.3233 79.5267 44.4093L36.2016 48.0964C35.59 48.1484 35.1873 48.7579 35.3793 49.341Z" fill="#5A5368"/>
<path d="M39.3824 51.7714L59.2797 111.925C59.4727 112.509 60.0406 112.884 60.653 112.832L99.1461 109.592C100.011 109.519 100.575 108.65 100.289 107.83L79.3925 47.8758C79.1933 47.3045 78.6333 46.9397 78.0302 46.9887L40.5368 50.0293C39.6787 50.099 39.1122 50.9539 39.3824 51.7714Z" fill="#E2ECF7"/>
<path d="M73.8365 64.1672C74.4556 68.4804 71.8281 73.0576 67.2088 73.7207C62.5897 74.3838 57.4676 70.7818 56.7337 66.4865C55.9524 61.9146 58.412 58.1527 62.7139 57.4583C67.4149 56.6993 73.2173 59.8538 73.8365 64.1672Z" fill="#3396FF"/>
<path d="M67.1715 62.9298C67.4365 61.297 66.3278 59.7586 64.6951 59.4936C63.0624 59.2287 61.5241 60.3375 61.2591 61.9703C60.9941 63.6031 62.1028 65.1415 63.7355 65.4065C65.3682 65.6715 66.9065 64.5626 67.1715 62.9298Z" fill="#8ACDFF"/>
<path d="M72.4387 70.3823C71.4235 68.8447 68.8498 65.6392 65.2607 66.0815C61.3858 66.559 61.4095 71.0509 61.5365 72.6098C63.2854 73.5406 65.2977 73.9954 67.2088 73.721C69.4871 73.3934 71.28 72.1128 72.4387 70.3823Z" fill="#8ACDFF"/>
<path d="M47.833 49.4378L50.0396 51.1885L70.1892 49.4716L71.1143 47.5497L47.833 49.4378Z" fill="#433E51"/>
<path d="M72.499 47.9472L76.6349 47.6337L77.3339 48.855L73.1642 49.1825L72.499 47.9472Z" fill="white"/>
<path d="M75.5635 47.7264L75.4584 47.7229L72.499 47.9472L73.1642 49.1825L76.2579 48.9394L75.5635 47.7264Z" fill="#A4BFD8"/>
<path d="M43.3545 50.8976L43.6399 51.7826" stroke="#433E51" stroke-miterlimit="10" stroke-linecap="round" stroke-linejoin="round"/>
<path d="M44.2217 50.5105L44.5986 51.6794" stroke="#433E51" stroke-miterlimit="10" stroke-linecap="round" stroke-linejoin="round"/>
<path d="M45.2607 50.1873L45.7023 51.5561" stroke="#433E51" stroke-miterlimit="10" stroke-linecap="round" stroke-linejoin="round"/>
<path d="M67.2023 117.001L64.5943 117.242L64.127 115L66.6507 114.766L67.2023 117.001Z" stroke="#433E51" stroke-miterlimit="10" stroke-linecap="round" stroke-linejoin="round"/>
<path d="M97.6535 114.281L94.7344 113.606L97.102 112.046L97.6535 114.281Z" stroke="#433E51" stroke-miterlimit="10" stroke-linecap="round" stroke-linejoin="round"/>
<path d="M83.311 114.568C83.3022 115.291 82.7086 115.87 81.9853 115.862C81.2619 115.853 80.6828 115.259 80.6915 114.536C80.7002 113.812 81.2939 113.233 82.0172 113.242C82.7406 113.251 83.3197 113.844 83.311 114.568Z" stroke="#433E51" stroke-miterlimit="10" stroke-linecap="round" stroke-linejoin="round"/>
<path d="M36.2666 52.0336L56.2996 112.837" stroke="#302D3D" stroke-miterlimit="10" stroke-linecap="round" stroke-linejoin="round"/>
<path d="M101.764 97.7575H65.971C65.4298 97.7575 64.9912 97.3189 64.9912 96.7777V93.0271C64.9912 92.4859 65.4298 92.0473 65.971 92.0473H101.764C102.305 92.0473 102.744 92.4859 102.744 93.0271V96.7777C102.744 97.3187 102.305 97.7575 101.764 97.7575Z" fill="white"/>
<path d="M82.8042 95.211H70.2313C70.0303 95.211 69.8672 95.0479 69.8672 94.8469C69.8672 94.6459 70.0303 94.4828 70.2313 94.4828H82.8042C83.0052 94.4828 83.1683 94.6459 83.1683 94.8469C83.1683 95.0479 83.0052 95.211 82.8042 95.211Z" fill="#433E51"/>
<path d="M97.5035 95.211H84.9305C84.7295 95.211 84.5664 95.0479 84.5664 94.8469C84.5664 94.6459 84.7295 94.4828 84.9305 94.4828H97.5035C97.7045 94.4828 97.8675 94.6459 97.8675 94.8469C97.8675 95.0479 97.7045 95.211 97.5035 95.211Z" fill="#433E51"/>
<path d="M101.764 106.786H65.971C65.4298 106.786 64.9912 106.347 64.9912 105.806V102.055C64.9912 101.514 65.4298 101.076 65.971 101.076H101.764C102.305 101.076 102.744 101.514 102.744 102.055V105.806C102.744 106.347 102.305 106.786 101.764 106.786Z" fill="white"/>
<path d="M70.2605 104.495C70.5721 104.495 70.8247 104.242 70.8247 103.931C70.8247 103.619 70.5721 103.367 70.2605 103.367C69.9489 103.367 69.6963 103.619 69.6963 103.931C69.6963 104.242 69.9489 104.495 70.2605 104.495Z" fill="#433E51"/>
<path d="M74.1238 104.495C74.4354 104.495 74.688 104.242 74.688 103.931C74.688 103.619 74.4354 103.367 74.1238 103.367C73.8122 103.367 73.5596 103.619 73.5596 103.931C73.5596 104.242 73.8122 104.495 74.1238 104.495Z" fill="#433E51"/>
<path d="M78.0154 104.495C78.327 104.495 78.5796 104.242 78.5796 103.931C78.5796 103.619 78.327 103.367 78.0154 103.367C77.7038 103.367 77.4512 103.619 77.4512 103.931C77.4512 104.242 77.7038 104.495 78.0154 104.495Z" fill="#433E51"/>
<path d="M81.8786 104.495C82.1902 104.495 82.4428 104.242 82.4428 103.931C82.4428 103.619 82.1902 103.367 81.8786 103.367C81.5671 103.367 81.3145 103.619 81.3145 103.931C81.3145 104.242 81.5671 104.495 81.8786 104.495Z" fill="#433E51"/>
<path d="M85.8562 104.495C86.1678 104.495 86.4204 104.242 86.4204 103.931C86.4204 103.619 86.1678 103.367 85.8562 103.367C85.5446 103.367 85.292 103.619 85.292 103.931C85.292 104.242 85.5446 104.495 85.8562 104.495Z" fill="#433E51"/>
<path d="M89.7195 104.495C90.0311 104.495 90.2837 104.242 90.2837 103.931C90.2837 103.619 90.0311 103.367 89.7195 103.367C89.4079 103.367 89.1553 103.619 89.1553 103.931C89.1553 104.242 89.4079 104.495 89.7195 104.495Z" fill="#433E51"/>
<path d="M93.6111 104.495C93.9227 104.495 94.1753 104.242 94.1753 103.931C94.1753 103.619 93.9227 103.367 93.6111 103.367C93.2995 103.367 93.0469 103.619 93.0469 103.931C93.0469 104.242 93.2995 104.495 93.6111 104.495Z" fill="#433E51"/>
<path d="M97.4743 104.495C97.7859 104.495 98.0385 104.242 98.0385 103.931C98.0385 103.619 97.7859 103.367 97.4743 103.367C97.1628 103.367 96.9102 103.619 96.9102 103.931C96.9102 104.242 97.1628 104.495 97.4743 104.495Z" fill="#433E51"/>
<path d="M57.3711 78.3938C57.3711 78.3938 60.4963 74.0098 60.7277 73.8171C60.9591 73.6241 66.052 72.6404 66.052 72.6404C66.052 72.6404 66.4957 72.6597 66.5729 73.2191C66.65 73.7784 62.6374 75.6497 62.6374 75.6497C62.6374 75.6497 63.9877 76.3827 64.3544 76.9807C64.721 77.5787 64.4507 78.1574 64.4507 78.1574C64.4507 78.1574 65.3381 78.8327 64.991 80.0864C64.991 80.0864 64.9717 82.44 64.9137 82.6521C64.8558 82.8644 63.6598 83.6167 63.6598 83.6167C63.6598 83.6167 62.9267 83.771 62.6374 83.4624C62.3481 83.1537 62.4251 82.5943 62.4251 82.5943L60.5732 84.2149L57.3711 78.3938Z" fill="#F9D5BF"/>
<path d="M55.9531 78.6979L57.2986 77.9745C57.2986 77.9745 60.2647 82.1801 60.8724 84.2151L59.1651 86.1057L55.9531 78.6979Z" fill="white"/>
<path d="M60.0329 86.3371C59.5699 83.6749 55.6923 78.119 55.6923 78.119C51.2938 81.8809 46.2589 83.3276 46.2589 83.3276C45.0523 81.4374 43.2877 79.1197 42.3229 77.8809L40.7996 73.2577L35.5307 70.4308C35.5307 70.4308 34.2552 71.1385 32.6587 74.7044C31.0625 78.2706 30.6331 81.4177 33.1217 88.2468C35.6103 95.076 37.4043 97.8539 37.4043 97.8539C37.4043 97.8539 37.115 99.5322 37.9253 101.153C38.7356 102.773 40.7996 103.699 40.7996 103.699C40.7996 103.699 42.9602 106.824 45.9695 110.528C48.9791 114.232 52.8564 116.489 52.8564 116.489C53.551 117.242 55.6923 118.457 55.6923 118.457L47.3537 93.1493C48.4213 92.9945 50.0976 92.5568 52.5671 91.43C57.5919 89.1374 60.0329 86.3371 60.0329 86.3371Z" fill="#F7C272"/>
<path opacity="0.5" d="M39.3301 74.6768L41.7835 76.2436L42.2828 77.7588C42.2828 77.7588 40.383 75.4193 39.3301 74.6768Z" fill="#F7C272"/>
<path opacity="0.5" d="M47.3539 93.1493C47.5802 93.1164 47.8355 93.0699 48.1184 93.0078C48.1087 93.0094 45.4023 93.4841 40.7998 89.8559C40.7998 89.8559 43.4496 93.8627 47.9103 94.8375L47.3539 93.1493Z" fill="#F7C272"/>
<path d="M35.5264 71.1261C35.5264 71.1261 37.5782 72.409 40.7998 73.2577L40.0571 71.0069L35.5264 71.1261Z" fill="#F9D5BF"/>
<path d="M40.9349 60.9884C40.9349 60.9884 44.0602 62.1747 44.0602 65.9656C44.0602 69.5589 41.6661 71.4058 39.7196 71.7818C37.8058 72.1517 36.1024 71.5215 35.003 70.8269C33.9034 70.1323 33.1221 69.9299 33.1221 69.9299V66.197C33.1221 66.197 38.0123 61.625 40.9349 60.9884Z" fill="#F9D5BF"/>
<path d="M40.5437 72.4812L40.2675 71.6438C39.9179 71.7712 38.2794 72.2611 35.9102 71.2875C35.9102 71.2875 38.0305 72.5923 40.5437 72.4812Z" fill="#FCA695"/>
<path d="M35.6787 71.1723C35.6787 71.1723 36.8255 71.8122 38.2356 71.8814C39.4302 71.9403 40.2173 71.656 40.2173 71.656" stroke="#DB7665" stroke-width="0.5" stroke-miterlimit="10" stroke-linecap="round"/>
<path d="M35.6787 71.0681C35.6787 71.0681 36.2671 71.5118 36.8554 70.8078" stroke="#DB7665" stroke-width="0.5" stroke-miterlimit="10" stroke-linecap="round"/>
<path d="M36.7394 68.6855C36.7394 68.6855 37.434 67.1229 36.5947 65.0683C36.5947 65.0683 37.1444 65.1118 37.3905 65.0104C37.6364 64.9092 37.1879 64.0554 37.1879 64.0554C37.1879 64.0554 38.7167 64.6534 40.2986 62.5121C41.8806 60.3708 42.3049 59.1555 40.4143 58.5575C40.4143 58.5575 40.4148 58.5612 40.4155 58.5683C40.4663 59.0554 39.9771 59.4188 39.5194 59.2447C38.2022 58.744 34.498 57.9312 31.7525 63.1103C31.7525 63.1103 30.2478 63.612 30.6336 67.2773C31.0195 70.9425 34.4918 71.4442 35.8808 71.1355C35.8808 71.1355 34.3568 70.3639 33.9902 69.3415C33.6236 68.3192 34.3568 67.1616 35.2055 67.1809C36.0544 67.2002 36.7394 68.6855 36.7394 68.6855Z" fill="#5A2402"/>
<path d="M38.2788 66.7832C38.4727 66.3671 39.03 65.4729 40.1984 65.5962C40.2975 65.6065 40.3937 65.5483 40.4142 65.4508C40.4542 65.2597 40.4381 64.9457 40.0089 64.7312C40.0089 64.7312 38.0429 64.0057 37.6042 66.0868C37.5992 66.1109 37.5983 66.136 37.6015 66.1604C37.6169 66.2752 37.6864 66.6114 37.9883 66.8564C38.0833 66.9332 38.2273 66.8936 38.2788 66.7832Z" fill="#5A2402"/>
<path d="M42.5482 62.1057C42.5482 62.1057 41.8382 62.3622 41.4318 63.2902C41.4 63.3629 41.4035 63.4473 41.4407 63.5174C41.4957 63.6205 41.6135 63.819 41.7457 63.989C41.8469 64.1191 42.0431 64.1194 42.1406 63.9862C42.3455 63.7061 42.8037 63.2424 43.2821 63.0416C43.2821 63.0416 43.0093 62.416 42.5482 62.1057Z" fill="#5A2402"/>
<path d="M38.7549 67.8755C38.7549 67.8755 39.1022 66.1233 40.7998 66.4401" stroke="#5A2402" stroke-width="0.75" stroke-miterlimit="10" stroke-linecap="round"/>
<path d="M42.1934 65.3289C42.1934 65.3289 42.502 64.1716 43.281 64.1571" stroke="#5A2402" stroke-width="0.75" stroke-miterlimit="10" stroke-linecap="round"/>
<path d="M40.655 67.4134C40.655 67.9723 40.3873 68.4252 40.057 68.4252C39.7267 68.4252 39.459 67.9723 39.459 67.4134C39.459 66.8547 39.7267 66.4016 40.057 66.4016C40.3873 66.4016 40.655 66.8547 40.655 67.4134Z" fill="#5A2402"/>
<path d="M43.4783 65.1281C43.6042 65.5987 43.488 66.0382 43.2191 66.1102C42.9503 66.182 42.6303 65.8588 42.5048 65.3883C42.3792 64.9177 42.4951 64.4782 42.764 64.4062C43.0328 64.3344 43.3528 64.6576 43.4783 65.1281Z" fill="#5A2402"/>
<path d="M42.0205 66.6022L43.4663 67.4622C43.582 67.5309 43.5983 67.6922 43.4989 67.7828L42.5559 68.6423" stroke="#DB7665" stroke-width="0.75" stroke-miterlimit="10" stroke-linecap="round"/>
<path d="M39.6296 69.7495C39.9256 69.9041 40.586 70.1739 41.4363 70.0674C41.4972 70.0598 41.5432 70.1212 41.5129 70.1746C41.3689 70.4262 41.0057 70.972 40.4917 71.1261C40.4917 71.1261 39.4863 70.7141 39.4484 69.8673C39.444 69.7721 39.5452 69.7054 39.6296 69.7495Z" fill="#ED7969"/>
<path d="M35.399 68.9659C35.399 68.9659 34.8872 68.7145 34.728 69.0979C34.5877 69.436 35.3424 70.0952 35.8251 70.1863C35.9282 70.2056 36.0204 70.1194 36.0223 70.0145C36.0264 69.7755 35.9473 69.3353 35.399 68.9659Z" fill="#FCA695"/>
<path d="M35.0605 68.7725C35.0605 68.7725 35.6682 68.9606 36.001 69.7997" stroke="#DB7665" stroke-width="0.75" stroke-miterlimit="10" stroke-linecap="round"/>
<path d="M35.1348 69.4733C35.1348 69.4733 35.3648 69.2861 35.8064 69.4462" stroke="#DB7665" stroke-width="0.75" stroke-miterlimit="10" stroke-linecap="round"/>
<path opacity="0.39" d="M39.8221 71.0959C39.8221 71.0959 40.1947 71.3094 40.2163 71.331C40.2379 71.3526 39.7379 71.5047 39.7057 71.4757C39.6737 71.4467 39.8221 71.0959 39.8221 71.0959Z" fill="#FCA695"/>
<path d="M46.4136 104.201C43.8671 104.818 40.7998 103.699 40.7998 103.699C40.7998 103.699 42.9604 106.824 45.9697 110.528C48.9793 114.232 52.8566 116.489 52.8566 116.489C53.5512 117.242 55.6925 118.457 55.6925 118.457L50.4656 102.593C50.4656 102.593 48.96 103.583 46.4136 104.201Z" fill="#5A2402"/>
<path d="M34.1445 74.608C34.1445 74.608 34.5979 72.8237 37.3758 73.5471C40.1537 74.2704 44.4649 80.4461 46.462 83.6749" stroke="#E0993B" stroke-width="0.914" stroke-miterlimit="2.2259" stroke-linecap="round" stroke-linejoin="bevel"/>
<path d="M34.9551 84.2151C34.9551 84.2151 39.199 89.038 42.8645 91.353C46.5298 93.6679 48.1194 93.0078 48.1194 93.0078C48.1194 93.0078 56.3876 90.7354 60.0336 86.3371" stroke="#E0993B" stroke-width="0.914" stroke-miterlimit="2.2259" stroke-linecap="round" stroke-linejoin="bevel"/>
<path d="M61.7266 75.2543C61.7266 75.2543 62.8262 75.6483 63.8824 76.4786C64.9385 77.3089 64.4514 78.1576 64.4514 78.1576C64.4514 78.1576 65.3629 78.8281 64.9916 80.0866C64.9916 80.0866 65.0052 82.087 64.9394 82.4032" stroke="#DB7665" stroke-width="0.5" stroke-miterlimit="10" stroke-linecap="round"/>
<path d="M61.7266 76.9423C61.7266 76.9423 63.429 77.8297 64.4514 78.1576" stroke="#DB7665" stroke-width="0.5" stroke-miterlimit="10" stroke-linecap="round"/>
<path d="M62.7148 79.2766C62.7148 79.2766 64.5088 79.6816 64.9912 80.0869" stroke="#DB7665" stroke-width="0.5" stroke-miterlimit="10" stroke-linecap="round"/>
<path d="M63.4036 81.5529C63.4036 81.5529 62.7879 82.2758 62.4863 82.5396" stroke="#DB7665" stroke-width="0.5" stroke-miterlimit="10" stroke-linecap="round"/>
<path d="M111.967 46.5998V72.7345H97.6514" stroke="#83A8C6" stroke-miterlimit="10"/>
<path opacity="0.55" d="M120.08 34.5453H115.057V33.9882C115.057 33.0215 114.273 32.2377 113.306 32.2377H104.712C103.746 32.2377 102.962 33.0215 102.962 33.9882V40.9271C102.962 41.894 103.746 42.6778 104.712 42.6778H111.075H113.307H120.08C120.934 42.6778 121.625 41.986 121.625 41.1327V36.0904C121.625 35.2369 120.934 34.5453 120.08 34.5453Z" fill="#4C94FF"/>
<path d="M120.836 36.6937H103.804C103.339 36.6937 102.962 37.0707 102.962 37.5355V46.3558C102.962 46.8206 103.339 47.1976 103.804 47.1976H120.836C121.301 47.1976 121.678 46.8206 121.678 46.3558V37.5355C121.678 37.0707 121.301 36.6937 120.836 36.6937Z" fill="#3396FF"/>
<path d="M99.8574 73.8849V70.9085H97.652V73.8849H99.8574Z" fill="#433E51"/>
<path d="M101.857 53.5421C88.893 51.0728 83.6458 46.3659 83.6458 46.3659C83.6458 46.3659 78.3985 51.0728 65.4348 53.5421C65.4348 53.5421 63.9688 78.582 83.6458 88.1891C103.323 78.582 101.857 53.5421 101.857 53.5421Z" fill="#3396FF"/>
<path opacity="0.35" d="M83.6458 88.1891V46.3659C83.6458 46.3659 78.3985 51.0728 65.4348 53.5421C65.4348 53.5421 63.9688 78.582 83.6458 88.1891Z" fill="#3396FF"/>
<path d="M84.5361 72.86H80.0996L78.0174 76.1725L77.2892 72.86H74.5361L76.0339 73.8396L76.9691 77.9564H78.3886L81.421 73.1211L82.1993 73.7685L81.3616 77.9566H82.803L83.0652 76.6244H84.0843C85.6205 76.6244 86.6035 75.787 86.6035 74.4985C86.6038 73.464 85.8613 72.86 84.5361 72.86ZM84.1504 75.488H83.2911L83.5896 73.9955H84.3468C84.8491 73.9955 85.1476 74.1922 85.1476 74.6216C85.1476 75.1826 84.7838 75.488 84.1504 75.488ZM90.6099 72.86L90.0568 75.6485L88.3676 72.86H87.1808L86.1615 77.9564H87.5739L88.1344 75.1607L89.8162 77.9564H91.003L91.836 73.7918L92.7547 72.8603L90.6099 72.86Z" fill="white"/>
<path d="M83.6461 52.7125C83.6461 52.7125 79.5371 52.7125 79.5371 56.0544V59.3968H80.8104V55.9822C80.8104 55.9822 80.7524 53.8699 83.6461 53.8699C86.5397 53.8699 86.482 55.9822 86.482 55.9822V59.3968H87.7552V56.0544C87.755 52.7125 83.6461 52.7125 83.6461 52.7125Z" fill="#E2E8EB"/>
<path d="M88.4151 59.1366H78.8773C78.3361 59.1366 77.8975 59.5752 77.8975 60.1164V69.3843C77.8975 69.9255 78.3361 70.3641 78.8773 70.3641H88.4151C88.9563 70.3641 89.3949 69.9255 89.3949 69.3843V60.1164C89.3949 59.5752 88.9561 59.1366 88.4151 59.1366Z" fill="#FFD41F"/>
<path opacity="0.55" d="M80.7695 68.9461C80.013 68.9461 79.3998 68.3329 79.3998 67.5765V59.1366H79.2671C78.5106 59.1366 77.8975 59.7498 77.8975 60.5063V68.9944C77.8975 69.7509 78.5106 70.3641 79.2671 70.3641H88.0253C88.7818 70.3641 89.3949 69.7509 89.3949 68.9944V68.9461H80.7695Z" fill="#FFD41F"/>
<path d="M84.8036 63.8339C84.7866 63.6002 84.7199 63.4082 84.6265 63.2504C84.1982 62.5273 83.0942 62.5273 82.666 63.2504C82.5726 63.408 82.5059 63.6002 82.4889 63.8339C82.4176 64.8054 83.0675 64.9432 83.0675 64.9432L82.9818 66.4265C82.9746 66.5491 83.039 66.6668 83.1497 66.7197C83.2681 66.7763 83.4395 66.834 83.6462 66.834C83.8484 66.834 84.0168 66.7788 84.135 66.7234C84.2493 66.6698 84.3181 66.5525 84.3107 66.4265L84.2249 64.9432C84.2249 64.9432 84.8749 64.8054 84.8036 63.8339Z" fill="#823D00"/>
<path d="M113.455 47.2291H110.479V48.6928H113.455V47.2291Z" fill="#433E51"/>
</g>
<defs>
<filter id="filter0_d_51_3070" x="-4" y="0" width="158" height="158" filterUnits="userSpaceOnUse" color-interpolation-filters="sRGB">
<feFlood flood-opacity="0" result="BackgroundImageFix"/>
<feColorMatrix in="SourceAlpha" type="matrix" values="0 0 0 0 0 0 0 0 0 0 0 0 0 0 0 0 0 0 127 0" result="hardAlpha"/>
<feOffset dy="4"/>
<feGaussianBlur stdDeviation="2"/>
<feComposite in2="hardAlpha" operator="out"/>
<feColorMatrix type="matrix" values="0 0 0 0 0 0 0 0 0 0 0 0 0 0 0 0 0 0 0.25 0"/>
<feBlend mode="normal" in2="BackgroundImageFix" result="effect1_dropShadow_51_3070"/>
<feBlend mode="normal" in="SourceGraphic" in2="effect1_dropShadow_51_3070" result="shape"/>
</filter>
</defs>
</svg>
